<svg width="20" height="16" viewBox="0 0 20 16" fill="none" xmlns="http://www.w3.org/2000/svg">
<path fill-rule="evenodd" clip-rule="evenodd" d="M4.7336 4.60608C4.54547 5.19762 4.54547 5.92726 4.54547 7.38654C4.54547 8.84582 4.54547 9.57546 4.7336 10.167C5.127 11.404 6.09619 12.3732 7.33319 12.7666C7.92474 12.9547 8.65438 12.9547 10.1137 12.9547C11.5729 12.9547 12.3026 12.9547 12.8941 12.7666C14.1311 12.3732 15.1003 11.404 15.4937 10.167C15.6818 9.57546 15.6818 8.84582 15.6818 7.38654C15.6818 5.92726 15.6818 5.19762 15.4937 4.60608C15.1003 3.36908 14.1311 2.39989 12.8941 2.00648C12.3026 1.81836 11.5729 1.81836 10.1137 1.81836C8.65438 1.81836 7.92474 1.81836 7.33319 2.00648C6.09619 2.39989 5.127 3.36908 4.7336 4.60608ZM9.11371 4.293V6.38643H7.02027V8.38643H9.11371V10.4799H11.1137V8.38643H13.2071V6.38643H11.1137L11.1137 4.293H9.11371Z" fill="#112A5A"/>
</svg>
