<svg width="40" height="40" viewBox="0 0 40 40" fill="none" xmlns="http://www.w3.org/2000/svg">
<path fill-rule="evenodd" clip-rule="evenodd" d="M25.2038 18.7957L26.9998 16.9997C27.545 16.4544 27.8176 16.1818 27.9634 15.8877C28.2407 15.3282 28.2407 14.6712 27.9634 14.1117C27.8176 13.8176 27.545 13.5449 26.9998 12.9997C26.4545 12.4544 26.1819 12.1818 25.8878 12.0361C25.3282 11.7588 24.6713 11.7588 24.1117 12.0361C23.8176 12.1818 23.545 12.4544 22.9998 12.9997L21.1811 14.8184C22.145 16.469 23.5311 17.8445 25.2038 18.7957ZM19.7267 16.2728L12.8562 23.1433C12.4311 23.5684 12.2186 23.7809 12.0788 24.042C11.9391 24.3031 11.8801 24.5978 11.7623 25.1873L11.1469 28.2643C11.0803 28.5969 11.0471 28.7632 11.1417 28.8578C11.2363 28.9524 11.4026 28.9191 11.7352 28.8526L14.8122 28.2372C15.4016 28.1193 15.6964 28.0604 15.9575 27.9206C16.2186 27.7809 16.4311 27.5684 16.8562 27.1433L23.7456 20.2539C22.1239 19.2383 20.7522 17.876 19.7267 16.2728Z" fill="white"/>
</svg>
