<svg width="25" height="24" viewBox="0 0 25 24" fill="none" xmlns="http://www.w3.org/2000/svg">
<path d="M9.53588 10L12.7054 12.4253C13.1269 12.7477 13.7268 12.6849 14.0722 12.2821L20.3176 5" stroke="#69C536" stroke-width="2" stroke-linecap="round"/>
<path d="M21.2976 12C21.2976 13.8805 20.7203 15.7137 19.6467 17.2423C18.5731 18.7709 17.0571 19.9179 15.3118 20.5224C13.5664 21.1268 11.6793 21.1583 9.91549 20.6125C8.15168 20.0666 6.59976 18.9707 5.4777 17.4789C4.35565 15.987 3.71982 14.174 3.65951 12.2945C3.5992 10.415 4.11745 8.56344 5.14146 6.99987C6.16548 5.4363 7.64382 4.23925 9.36886 3.57685C11.0939 2.91444 12.979 2.81996 14.7594 3.30667" stroke="#69C536" stroke-width="2" stroke-linecap="round"/>
</svg>
