<svg width="30" height="30" viewBox="0 0 30 30" fill="none" xmlns="http://www.w3.org/2000/svg">
<rect width="30" height="30" rx="6" fill="#F8F8F8"/>
<path d="M23 15V19C23 20.8856 23 21.8284 22.4142 22.4142C21.8284 23 20.8856 23 19 23H9.22222C7.99492 23 7 22.0051 7 20.7778V20.7778C7 19.5505 7.99492 18.5556 9.22222 18.5556H19C20.8856 18.5556 21.8284 18.5556 22.4142 17.9698C23 17.384 23 16.4412 23 14.5556V11C23 9.11438 23 8.17157 22.4142 7.58579C21.8284 7 20.8856 7 19 7H11C9.11438 7 8.17157 7 7.58579 7.58579C7 8.17157 7 9.11438 7 11V20.7778" stroke="black" stroke-width="2"/>
</svg>
