<svg width="20" height="20" viewBox="0 0 20 20" fill="none" xmlns="http://www.w3.org/2000/svg">
<rect width="20" height="20" fill="white"/>
<path fill-rule="evenodd" clip-rule="evenodd" d="M6.05366 11.0094L4.34876 9.64551C4.12298 10.2769 4 10.9572 4 11.6662C4 14.9799 6.68629 17.6662 10 17.6662C13.3137 17.6662 16 14.9799 16 11.6662C16 10.9572 15.877 10.2769 15.6512 9.64551L13.9463 11.0094C13.9816 11.2231 14 11.4425 14 11.6662C14 13.8753 12.2091 15.6662 10 15.6662C7.79086 15.6662 6 13.8753 6 11.6662C6 11.4425 6.01836 11.2231 6.05366 11.0094Z" fill="#112A5A"/>
<path d="M9.99998 10.833L9.37529 11.6139L9.99998 12.1136L10.6247 11.6139L9.99998 10.833ZM11 3.33301C11 2.78072 10.5523 2.33301 9.99998 2.33301C9.4477 2.33301 8.99998 2.78072 8.99998 3.33301L11 3.33301ZM5.20862 8.28054L9.37529 11.6139L10.6247 10.0521L6.45801 6.71881L5.20862 8.28054ZM10.6247 11.6139L14.7913 8.28054L13.542 6.71881L9.37529 10.0521L10.6247 11.6139ZM11 10.833L11 3.33301L8.99998 3.33301L8.99998 10.833L11 10.833Z" fill="#112A5A"/>
</svg>
