<svg width="32" height="30" viewBox="0 0 32 30" fill="none" xmlns="http://www.w3.org/2000/svg">
<path d="M17.3157 26.8478L17.1743 25.8578L17.3157 26.8478ZM13.4396 26.7049L12.7844 27.4603L13.4396 26.7049ZM25.0985 25.7359L24.9571 24.746L25.0985 25.7359ZM29.5164 24.3637L30.2718 25.0189L29.5164 24.3637ZM25.0985 4.26408L24.9571 5.25403L25.0985 4.26408ZM29.5164 5.63628L28.7609 6.29148L29.5164 5.63628ZM17.3157 3.15224L17.1743 4.14219L17.3157 3.15224ZM17.1743 4.14219L24.9571 5.25403L25.2399 3.27413L17.4571 2.16229L17.1743 4.14219ZM29.25 10.2038V19.7962H31.25V10.2038H29.25ZM24.9571 24.746L17.1743 25.8578L17.4571 27.8377L25.24 26.7259L24.9571 24.746ZM13.75 8.91492V7.11204H11.75V8.91492H13.75ZM13.75 22.888V21.3325H11.75V22.888H13.75ZM17.1743 25.8578C16.0821 26.0138 15.3681 26.1135 14.8378 26.1144C14.3358 26.1153 14.1805 26.0237 14.0948 25.9494L12.7844 27.4603C13.3883 27.9841 14.1088 28.1157 14.8414 28.1144C15.5457 28.1131 16.4249 27.9852 17.4571 27.8377L17.1743 25.8578ZM11.75 22.888C11.75 23.9307 11.7476 24.8191 11.846 25.5165C11.9483 26.2419 12.1805 26.9366 12.7844 27.4603L14.0948 25.9494C14.0091 25.8751 13.8965 25.7343 13.8264 25.2372C13.7524 24.7121 13.75 23.9912 13.75 22.888H11.75ZM29.25 19.7962C29.25 21.0628 29.2481 21.919 29.1662 22.5678C29.0877 23.1888 28.9489 23.4918 28.7609 23.7085L30.2718 25.0189C30.8175 24.3898 31.0454 23.6496 31.1504 22.8185C31.2519 22.0153 31.25 21.0107 31.25 19.7962H29.25ZM25.24 26.7259C26.4422 26.5541 27.437 26.4139 28.2177 26.1999C29.0257 25.9784 29.7262 25.6481 30.2718 25.0189L28.7609 23.7085C28.5729 23.9253 28.2926 24.1056 27.689 24.271C27.0583 24.4439 26.211 24.5669 24.9571 24.746L25.24 26.7259ZM24.9571 5.25403C26.211 5.43315 27.0583 5.55607 27.689 5.72897C28.2926 5.89442 28.5729 6.07473 28.7609 6.29148L30.2718 4.98108C29.7262 4.35194 29.0257 4.02159 28.2177 3.80013C27.437 3.58611 26.4422 3.44588 25.2399 3.27413L24.9571 5.25403ZM31.25 10.2038C31.25 8.9893 31.2519 7.98468 31.1504 7.18152C31.0454 6.35041 30.8175 5.61022 30.2718 4.98108L28.7609 6.29148C28.9489 6.50824 29.0877 6.81125 29.1662 7.43216C29.2481 8.081 29.25 8.93718 29.25 10.2038H31.25ZM17.4571 2.16229C16.4249 2.01483 15.5457 1.88686 14.8414 1.88559C14.1088 1.88428 13.3883 2.01588 12.7844 2.53966L14.0948 4.05057C14.1805 3.97626 14.3358 3.88469 14.8378 3.88559C15.3681 3.88654 16.0821 3.98617 17.1743 4.14219L17.4571 2.16229ZM13.75 7.11204C13.75 6.00883 13.7524 5.28786 13.8264 4.76279C13.8965 4.26573 14.0091 4.12487 14.0948 4.05057L12.7844 2.53966C12.1805 3.06343 11.9483 3.75809 11.846 4.4835C11.7476 5.1809 11.75 6.06935 11.75 7.11204H13.75Z" fill="black"/>
<path d="M24 15L24.7809 14.3753L25.2806 15L24.7809 15.6247L24 15ZM9 16C8.44772 16 8 15.5523 8 15C8 14.4477 8.44772 14 9 14V16ZM19.7809 8.12531L24.7809 14.3753L23.2191 15.6247L18.2191 9.37469L19.7809 8.12531ZM24.7809 15.6247L19.7809 21.8747L18.2191 20.6253L23.2191 14.3753L24.7809 15.6247ZM24 16H9V14H24V16Z" fill="black"/>
</svg>
