<svg width="100" height="165" viewBox="0 0 100 165" fill="none" xmlns="http://www.w3.org/2000/svg">
<path d="M20.5 15.3384C20.5 17.3654 18.9016 18.9511 17 18.9511C15.0984 18.9511 13.5 17.3654 13.5 15.3384C13.5 13.3114 15.0984 11.7256 17 11.7256C18.9016 11.7256 20.5 13.3114 20.5 15.3384Z" fill="#F5B31F" stroke="#F5B31F" stroke-width="3"/>
<path d="M20.5 50.105C20.5 52.132 18.9016 53.7178 17 53.7178C15.0984 53.7178 13.5 52.132 13.5 50.105C13.5 48.078 15.0984 46.4922 17 46.4922C18.9016 46.4922 20.5 48.078 20.5 50.105Z" fill="#3699FF" stroke="#3699FF" stroke-width="3"/>
<path d="M20.5 84.8725C20.5 86.8995 18.9016 88.4853 17 88.4853C15.0984 88.4853 13.5 86.8995 13.5 84.8725C13.5 82.8455 15.0984 81.2598 17 81.2598C18.9016 81.2598 20.5 82.8455 20.5 84.8725Z" fill="#69C536" stroke="#69C536" stroke-width="3"/>
<path d="M20.5 119.639C20.5 121.666 18.9016 123.252 17 123.252C15.0984 123.252 13.5 121.666 13.5 119.639C13.5 117.612 15.0984 116.026 17 116.026C18.9016 116.026 20.5 117.612 20.5 119.639Z" fill="#F64E60" stroke="#F64E60" stroke-width="3"/>
<path d="M39.0568 20.1807V11.4534H40.1136V19.2432H44.1705V20.1807H39.0568ZM48.4148 20.317C47.7841 20.317 47.2401 20.1778 46.7827 19.8994C46.3281 19.6182 45.9773 19.2261 45.7301 18.7233C45.4858 18.2176 45.3636 17.6295 45.3636 16.9591C45.3636 16.2886 45.4858 15.6977 45.7301 15.1863C45.9773 14.6721 46.321 14.2716 46.7614 13.9846C47.2045 13.6949 47.7216 13.55 48.3125 13.55C48.6534 13.55 48.9901 13.6068 49.3224 13.7204C49.6548 13.8341 49.9574 14.0187 50.2301 14.2744C50.5028 14.5273 50.7202 14.8625 50.8821 15.2801C51.044 15.6977 51.125 16.2119 51.125 16.8227V17.2488H46.0795V16.3795H50.1023C50.1023 16.0102 50.0284 15.6807 49.8807 15.3909C49.7358 15.1011 49.5284 14.8724 49.2585 14.7048C48.9915 14.5372 48.6761 14.4534 48.3125 14.4534C47.9119 14.4534 47.5653 14.5528 47.2727 14.7517C46.983 14.9477 46.7599 15.2034 46.6037 15.5187C46.4474 15.8341 46.3693 16.1721 46.3693 16.5329V17.1125C46.3693 17.6068 46.4545 18.0258 46.625 18.3696C46.7983 18.7105 47.0384 18.9704 47.3452 19.1494C47.652 19.3256 48.0085 19.4136 48.4148 19.4136C48.679 19.4136 48.9176 19.3767 49.1307 19.3028C49.3466 19.2261 49.5327 19.1125 49.6889 18.9619C49.8452 18.8085 49.9659 18.6182 50.0511 18.3909L51.0227 18.6636C50.9205 18.9932 50.7486 19.2829 50.5071 19.5329C50.2656 19.7801 49.9673 19.9733 49.6122 20.1125C49.2571 20.2488 48.858 20.317 48.4148 20.317ZM57.8079 13.6352L55.3874 20.1807H54.3647L51.9442 13.6352H53.0352L54.842 18.8511H54.9102L56.717 13.6352H57.8079ZM61.6452 20.317C61.0146 20.317 60.4705 20.1778 60.0131 19.8994C59.5586 19.6182 59.2077 19.2261 58.9606 18.7233C58.7163 18.2176 58.5941 17.6295 58.5941 16.9591C58.5941 16.2886 58.7163 15.6977 58.9606 15.1863C59.2077 14.6721 59.5515 14.2716 59.9918 13.9846C60.435 13.6949 60.9521 13.55 61.543 13.55C61.8839 13.55 62.2205 13.6068 62.5529 13.7204C62.8853 13.8341 63.1879 14.0187 63.4606 14.2744C63.7333 14.5273 63.9506 14.8625 64.1126 15.2801C64.2745 15.6977 64.3555 16.2119 64.3555 16.8227V17.2488H59.31V16.3795H63.3327C63.3327 16.0102 63.2589 15.6807 63.1112 15.3909C62.9663 15.1011 62.7589 14.8724 62.489 14.7048C62.2219 14.5372 61.9066 14.4534 61.543 14.4534C61.1424 14.4534 60.7958 14.5528 60.5032 14.7517C60.2134 14.9477 59.9904 15.2034 59.8342 15.5187C59.6779 15.8341 59.5998 16.1721 59.5998 16.5329V17.1125C59.5998 17.6068 59.685 18.0258 59.8555 18.3696C60.0288 18.7105 60.2688 18.9704 60.5756 19.1494C60.8825 19.3256 61.239 19.4136 61.6452 19.4136C61.9094 19.4136 62.1481 19.3767 62.3612 19.3028C62.5771 19.2261 62.7631 19.1125 62.9194 18.9619C63.0756 18.8085 63.1964 18.6182 63.2816 18.3909L64.2532 18.6636C64.1509 18.9932 63.979 19.2829 63.7376 19.5329C63.4961 19.7801 63.1978 19.9733 62.8427 20.1125C62.4876 20.2488 62.0884 20.317 61.6452 20.317ZM66.891 11.4534V20.1807H65.8853V11.4534H66.891ZM75.858 15.3483V16.2858H72.0398V15.3483H75.858ZM84.0536 11.4534V20.1807H82.9968V12.5613H82.9457L80.815 13.9761V12.9023L82.9968 11.4534H84.0536Z" fill="#151515"/>
<path d="M39.0568 53.9248V45.1975H40.1136V52.9873H44.1705V53.9248H39.0568ZM48.4148 54.0612C47.7841 54.0612 47.2401 53.922 46.7827 53.6436C46.3281 53.3623 45.9773 52.9703 45.7301 52.4674C45.4858 51.9617 45.3636 51.3737 45.3636 50.7032C45.3636 50.0328 45.4858 49.4418 45.7301 48.9305C45.9773 48.4163 46.321 48.0157 46.7614 47.7288C47.2045 47.439 47.7216 47.2941 48.3125 47.2941C48.6534 47.2941 48.9901 47.3509 49.3224 47.4646C49.6548 47.5782 49.9574 47.7629 50.2301 48.0186C50.5028 48.2714 50.7202 48.6066 50.8821 49.0242C51.044 49.4418 51.125 49.9561 51.125 50.5668V50.993H46.0795V50.1237H50.1023C50.1023 49.7543 50.0284 49.4248 49.8807 49.135C49.7358 48.8453 49.5284 48.6166 49.2585 48.449C48.9915 48.2813 48.6761 48.1975 48.3125 48.1975C47.9119 48.1975 47.5653 48.297 47.2727 48.4958C46.983 48.6919 46.7599 48.9475 46.6037 49.2629C46.4474 49.5782 46.3693 49.9163 46.3693 50.2771V50.8566C46.3693 51.3509 46.4545 51.77 46.625 52.1137C46.7983 52.4546 47.0384 52.7146 47.3452 52.8936C47.652 53.0697 48.0085 53.1578 48.4148 53.1578C48.679 53.1578 48.9176 53.1208 49.1307 53.047C49.3466 52.9703 49.5327 52.8566 49.6889 52.7061C49.8452 52.5526 49.9659 52.3623 50.0511 52.135L51.0227 52.4078C50.9205 52.7373 50.7486 53.0271 50.5071 53.2771C50.2656 53.5242 49.9673 53.7174 49.6122 53.8566C49.2571 53.993 48.858 54.0612 48.4148 54.0612ZM57.8079 47.3793L55.3874 53.9248H54.3647L51.9442 47.3793H53.0352L54.842 52.5953H54.9102L56.717 47.3793H57.8079ZM61.6452 54.0612C61.0146 54.0612 60.4705 53.922 60.0131 53.6436C59.5586 53.3623 59.2077 52.9703 58.9606 52.4674C58.7163 51.9617 58.5941 51.3737 58.5941 50.7032C58.5941 50.0328 58.7163 49.4418 58.9606 48.9305C59.2077 48.4163 59.5515 48.0157 59.9918 47.7288C60.435 47.439 60.9521 47.2941 61.543 47.2941C61.8839 47.2941 62.2205 47.3509 62.5529 47.4646C62.8853 47.5782 63.1879 47.7629 63.4606 48.0186C63.7333 48.2714 63.9506 48.6066 64.1126 49.0242C64.2745 49.4418 64.3555 49.9561 64.3555 50.5668V50.993H59.31V50.1237H63.3327C63.3327 49.7543 63.2589 49.4248 63.1112 49.135C62.9663 48.8453 62.7589 48.6166 62.489 48.449C62.2219 48.2813 61.9066 48.1975 61.543 48.1975C61.1424 48.1975 60.7958 48.297 60.5032 48.4958C60.2134 48.6919 59.9904 48.9475 59.8342 49.2629C59.6779 49.5782 59.5998 49.9163 59.5998 50.2771V50.8566C59.5998 51.3509 59.685 51.77 59.8555 52.1137C60.0288 52.4546 60.2688 52.7146 60.5756 52.8936C60.8825 53.0697 61.239 53.1578 61.6452 53.1578C61.9094 53.1578 62.1481 53.1208 62.3612 53.047C62.5771 52.9703 62.7631 52.8566 62.9194 52.7061C63.0756 52.5526 63.1964 52.3623 63.2816 52.135L64.2532 52.4078C64.1509 52.7373 63.979 53.0271 63.7376 53.2771C63.4961 53.5242 63.1978 53.7174 62.8427 53.8566C62.4876 53.993 62.0884 54.0612 61.6452 54.0612ZM66.891 45.1975V53.9248H65.8853V45.1975H66.891ZM75.858 49.0924V50.0299H72.0398V49.0924H75.858ZM80.9854 53.9248V53.1578L83.8661 50.0043C84.2042 49.635 84.4826 49.314 84.7013 49.0413C84.9201 48.7657 85.082 48.5072 85.1871 48.2657C85.2951 48.0214 85.3491 47.7657 85.3491 47.4987C85.3491 47.1919 85.2752 46.9262 85.1275 46.7018C84.9826 46.4774 84.7837 46.3041 84.5309 46.1819C84.2781 46.0597 83.994 45.9987 83.6786 45.9987C83.3434 45.9987 83.0508 46.0683 82.8008 46.2075C82.5536 46.3438 82.3619 46.5356 82.2255 46.7828C82.092 47.0299 82.0252 47.3197 82.0252 47.6521H81.0195C81.0195 47.1407 81.1374 46.6918 81.3732 46.3055C81.609 45.9191 81.93 45.618 82.3363 45.4021C82.7454 45.1862 83.2042 45.0782 83.7127 45.0782C84.2241 45.0782 84.6772 45.1862 85.0721 45.4021C85.467 45.618 85.7766 45.9092 86.0011 46.2757C86.2255 46.6421 86.3377 47.0498 86.3377 47.4987C86.3377 47.8197 86.2795 48.1336 86.163 48.4404C86.0494 48.7444 85.8505 49.0839 85.5664 49.4589C85.2852 49.8311 84.8945 50.2856 84.3945 50.8225L82.4343 52.9191V52.9873H86.4911V53.9248H80.9854Z" fill="black"/>
<path d="M39.0568 87.6689V78.9417H40.1136V86.7314H44.1705V87.6689H39.0568ZM48.4148 87.8053C47.7841 87.8053 47.2401 87.6661 46.7827 87.3877C46.3281 87.1064 45.9773 86.7144 45.7301 86.2116C45.4858 85.7059 45.3636 85.1178 45.3636 84.4474C45.3636 83.7769 45.4858 83.186 45.7301 82.6746C45.9773 82.1604 46.321 81.7599 46.7614 81.4729C47.2045 81.1831 47.7216 81.0383 48.3125 81.0383C48.6534 81.0383 48.9901 81.0951 49.3224 81.2087C49.6548 81.3224 49.9574 81.507 50.2301 81.7627C50.5028 82.0155 50.7202 82.3508 50.8821 82.7684C51.044 83.186 51.125 83.7002 51.125 84.311V84.7371H46.0795V83.8678H50.1023C50.1023 83.4985 50.0284 83.1689 49.8807 82.8792C49.7358 82.5894 49.5284 82.3607 49.2585 82.1931C48.9915 82.0255 48.6761 81.9417 48.3125 81.9417C47.9119 81.9417 47.5653 82.0411 47.2727 82.24C46.983 82.436 46.7599 82.6917 46.6037 83.007C46.4474 83.3224 46.3693 83.6604 46.3693 84.0212V84.6008C46.3693 85.0951 46.4545 85.5141 46.625 85.8579C46.7983 86.1988 47.0384 86.4587 47.3452 86.6377C47.652 86.8138 48.0085 86.9019 48.4148 86.9019C48.679 86.9019 48.9176 86.865 49.1307 86.7911C49.3466 86.7144 49.5327 86.6008 49.6889 86.4502C49.8452 86.2968 49.9659 86.1064 50.0511 85.8792L51.0227 86.1519C50.9205 86.4814 50.7486 86.7712 50.5071 87.0212C50.2656 87.2684 49.9673 87.4616 49.6122 87.6008C49.2571 87.7371 48.858 87.8053 48.4148 87.8053ZM57.8079 81.1235L55.3874 87.6689H54.3647L51.9442 81.1235H53.0352L54.842 86.3394H54.9102L56.717 81.1235H57.8079ZM61.6452 87.8053C61.0146 87.8053 60.4705 87.6661 60.0131 87.3877C59.5586 87.1064 59.2077 86.7144 58.9606 86.2116C58.7163 85.7059 58.5941 85.1178 58.5941 84.4474C58.5941 83.7769 58.7163 83.186 58.9606 82.6746C59.2077 82.1604 59.5515 81.7599 59.9918 81.4729C60.435 81.1831 60.9521 81.0383 61.543 81.0383C61.8839 81.0383 62.2205 81.0951 62.5529 81.2087C62.8853 81.3224 63.1879 81.507 63.4606 81.7627C63.7333 82.0155 63.9506 82.3508 64.1126 82.7684C64.2745 83.186 64.3555 83.7002 64.3555 84.311V84.7371H59.31V83.8678H63.3327C63.3327 83.4985 63.2589 83.1689 63.1112 82.8792C62.9663 82.5894 62.7589 82.3607 62.489 82.1931C62.2219 82.0255 61.9066 81.9417 61.543 81.9417C61.1424 81.9417 60.7958 82.0411 60.5032 82.24C60.2134 82.436 59.9904 82.6917 59.8342 83.007C59.6779 83.3224 59.5998 83.6604 59.5998 84.0212V84.6008C59.5998 85.0951 59.685 85.5141 59.8555 85.8579C60.0288 86.1988 60.2688 86.4587 60.5756 86.6377C60.8825 86.8138 61.239 86.9019 61.6452 86.9019C61.9094 86.9019 62.1481 86.865 62.3612 86.7911C62.5771 86.7144 62.7631 86.6008 62.9194 86.4502C63.0756 86.2968 63.1964 86.1064 63.2816 85.8792L64.2532 86.1519C64.1509 86.4814 63.979 86.7712 63.7376 87.0212C63.4961 87.2684 63.1978 87.4616 62.8427 87.6008C62.4876 87.7371 62.0884 87.8053 61.6452 87.8053ZM66.891 78.9417V87.6689H65.8853V78.9417H66.891ZM75.858 82.8366V83.7741H72.0398V82.8366H75.858ZM83.9343 87.7883C83.3718 87.7883 82.8704 87.6917 82.43 87.4985C81.9925 87.3053 81.6445 87.0368 81.386 86.6931C81.1303 86.3465 80.9911 85.9445 80.9684 85.4871H82.0423C82.065 85.7684 82.1616 86.0113 82.332 86.2158C82.5025 86.4175 82.7255 86.5738 83.0011 86.6846C83.2766 86.7954 83.582 86.8508 83.9173 86.8508C84.2923 86.8508 84.6246 86.7854 84.9144 86.6547C85.2042 86.5241 85.4315 86.3422 85.5962 86.1093C85.761 85.8763 85.8434 85.6064 85.8434 85.2996C85.8434 84.9786 85.7638 84.6959 85.6048 84.4516C85.4457 84.2045 85.2127 84.0113 84.9059 83.8721C84.5991 83.7329 84.2241 83.6633 83.7809 83.6633H83.082V82.7258H83.7809C84.1275 82.7258 84.4315 82.6633 84.6928 82.5383C84.957 82.4133 85.163 82.2371 85.3107 82.0099C85.4613 81.7826 85.5366 81.5155 85.5366 81.2087C85.5366 80.9133 85.4712 80.6562 85.3406 80.4374C85.2099 80.2187 85.0252 80.0482 84.7866 79.926C84.5508 79.8039 84.2724 79.7428 83.9513 79.7428C83.6502 79.7428 83.3661 79.7982 83.0991 79.909C82.8349 80.017 82.619 80.1746 82.4513 80.382C82.2837 80.5866 82.1928 80.8337 82.1786 81.1235H81.1559C81.1729 80.6661 81.3107 80.2655 81.5692 79.9218C81.8278 79.5752 82.1658 79.3053 82.5835 79.1121C83.0039 78.9189 83.4656 78.8224 83.9684 78.8224C84.5082 78.8224 84.9712 78.9317 85.3576 79.1505C85.744 79.3664 86.0408 79.6519 86.2482 80.007C86.4556 80.3621 86.5593 80.7456 86.5593 81.1576C86.5593 81.6491 86.43 82.0681 86.1715 82.4147C85.9158 82.7613 85.5678 83.0013 85.1275 83.1349V83.203C85.6786 83.2939 86.109 83.5283 86.4187 83.9062C86.7283 84.2812 86.8832 84.7456 86.8832 85.2996C86.8832 85.7741 86.7539 86.2002 86.4954 86.578C86.2397 86.953 85.8903 87.2485 85.4471 87.4644C85.0039 87.6803 84.4996 87.7883 83.9343 87.7883Z" fill="black"/>
<path d="M39.0568 121.413V112.686H40.1136V120.476H44.1705V121.413H39.0568ZM48.4148 121.549C47.7841 121.549 47.2401 121.41 46.7827 121.132C46.3281 120.851 45.9773 120.459 45.7301 119.956C45.4858 119.45 45.3636 118.862 45.3636 118.191C45.3636 117.521 45.4858 116.93 45.7301 116.419C45.9773 115.905 46.321 115.504 46.7614 115.217C47.2045 114.927 47.7216 114.782 48.3125 114.782C48.6534 114.782 48.9901 114.839 49.3224 114.953C49.6548 115.066 49.9574 115.251 50.2301 115.507C50.5028 115.76 50.7202 116.095 50.8821 116.513C51.044 116.93 51.125 117.444 51.125 118.055V118.481H46.0795V117.612H50.1023C50.1023 117.243 50.0284 116.913 49.8807 116.623C49.7358 116.334 49.5284 116.105 49.2585 115.937C48.9915 115.77 48.6761 115.686 48.3125 115.686C47.9119 115.686 47.5653 115.785 47.2727 115.984C46.983 116.18 46.7599 116.436 46.6037 116.751C46.4474 117.066 46.3693 117.405 46.3693 117.765V118.345C46.3693 118.839 46.4545 119.258 46.625 119.602C46.7983 119.943 47.0384 120.203 47.3452 120.382C47.652 120.558 48.0085 120.646 48.4148 120.646C48.679 120.646 48.9176 120.609 49.1307 120.535C49.3466 120.459 49.5327 120.345 49.6889 120.194C49.8452 120.041 49.9659 119.851 50.0511 119.623L51.0227 119.896C50.9205 120.226 50.7486 120.515 50.5071 120.765C50.2656 121.013 49.9673 121.206 49.6122 121.345C49.2571 121.481 48.858 121.549 48.4148 121.549ZM57.8079 114.868L55.3874 121.413H54.3647L51.9442 114.868H53.0352L54.842 120.084H54.9102L56.717 114.868H57.8079ZM61.6452 121.549C61.0146 121.549 60.4705 121.41 60.0131 121.132C59.5586 120.851 59.2077 120.459 58.9606 119.956C58.7163 119.45 58.5941 118.862 58.5941 118.191C58.5941 117.521 58.7163 116.93 58.9606 116.419C59.2077 115.905 59.5515 115.504 59.9918 115.217C60.435 114.927 60.9521 114.782 61.543 114.782C61.8839 114.782 62.2205 114.839 62.5529 114.953C62.8853 115.066 63.1879 115.251 63.4606 115.507C63.7333 115.76 63.9506 116.095 64.1126 116.513C64.2745 116.93 64.3555 117.444 64.3555 118.055V118.481H59.31V117.612H63.3327C63.3327 117.243 63.2589 116.913 63.1112 116.623C62.9663 116.334 62.7589 116.105 62.489 115.937C62.2219 115.77 61.9066 115.686 61.543 115.686C61.1424 115.686 60.7958 115.785 60.5032 115.984C60.2134 116.18 59.9904 116.436 59.8342 116.751C59.6779 117.066 59.5998 117.405 59.5998 117.765V118.345C59.5998 118.839 59.685 119.258 59.8555 119.602C60.0288 119.943 60.2688 120.203 60.5756 120.382C60.8825 120.558 61.239 120.646 61.6452 120.646C61.9094 120.646 62.1481 120.609 62.3612 120.535C62.5771 120.459 62.7631 120.345 62.9194 120.194C63.0756 120.041 63.1964 119.851 63.2816 119.623L64.2532 119.896C64.1509 120.226 63.979 120.515 63.7376 120.765C63.4961 121.013 63.1978 121.206 62.8427 121.345C62.4876 121.481 62.0884 121.549 61.6452 121.549ZM66.891 112.686V121.413H65.8853V112.686H66.891ZM75.858 116.581V117.518H72.0398V116.581H75.858ZM80.7809 119.623V118.754L84.6161 112.686H85.2468V114.032H84.8207L81.9229 118.618V118.686H87.0877V119.623H80.7809ZM84.8888 121.413V119.359V118.954V112.686H85.8945V121.413H84.8888Z" fill="black"/>
<path d="M38.8608 162V153.273H40.4418V160.675H44.2855V162H38.8608ZM48.4872 162.128C47.831 162.128 47.2642 161.991 46.7869 161.719C46.3125 161.443 45.9474 161.054 45.6918 160.551C45.4361 160.045 45.3082 159.45 45.3082 158.766C45.3082 158.092 45.4361 157.501 45.6918 156.993C45.9503 156.482 46.3111 156.084 46.7741 155.8C47.2372 155.513 47.7812 155.369 48.4062 155.369C48.8097 155.369 49.1903 155.435 49.5483 155.565C49.9091 155.693 50.2273 155.892 50.5028 156.162C50.7813 156.432 51 156.776 51.1591 157.193C51.3182 157.608 51.3977 158.102 51.3977 158.676V159.149H46.0327V158.109H49.919C49.9162 157.814 49.8523 157.551 49.7273 157.321C49.6023 157.088 49.4276 156.905 49.2031 156.771C48.9815 156.638 48.723 156.571 48.4276 156.571C48.1122 156.571 47.8352 156.648 47.5966 156.801C47.358 156.952 47.1719 157.151 47.0384 157.398C46.9077 157.642 46.8409 157.911 46.8381 158.203V159.111C46.8381 159.491 46.9077 159.818 47.0469 160.091C47.1861 160.361 47.3807 160.568 47.6307 160.713C47.8807 160.855 48.1733 160.926 48.5085 160.926C48.733 160.926 48.9361 160.895 49.1179 160.832C49.2997 160.767 49.4574 160.672 49.5909 160.547C49.7244 160.422 49.8253 160.267 49.8935 160.082L51.3338 160.244C51.2429 160.625 51.0696 160.957 50.8139 161.241C50.5611 161.523 50.2372 161.741 49.8423 161.898C49.4474 162.051 48.9957 162.128 48.4872 162.128ZM58.3619 155.455L56.0309 162H54.3263L51.9954 155.455H53.6403L55.1445 160.317H55.2127L56.7212 155.455H58.3619ZM62.1044 162.128C61.4482 162.128 60.8814 161.991 60.4041 161.719C59.9297 161.443 59.5646 161.054 59.3089 160.551C59.0533 160.045 58.9254 159.45 58.9254 158.766C58.9254 158.092 59.0533 157.501 59.3089 156.993C59.5675 156.482 59.9283 156.084 60.3913 155.8C60.8544 155.513 61.3984 155.369 62.0234 155.369C62.4268 155.369 62.8075 155.435 63.1655 155.565C63.5263 155.693 63.8445 155.892 64.12 156.162C64.3984 156.432 64.6172 156.776 64.7763 157.193C64.9354 157.608 65.0149 158.102 65.0149 158.676V159.149H59.6499V158.109H63.5362C63.5334 157.814 63.4695 157.551 63.3445 157.321C63.2195 157.088 63.0447 156.905 62.8203 156.771C62.5987 156.638 62.3402 156.571 62.0447 156.571C61.7294 156.571 61.4524 156.648 61.2138 156.801C60.9751 156.952 60.7891 157.151 60.6555 157.398C60.5249 157.642 60.4581 157.911 60.4553 158.203V159.111C60.4553 159.491 60.5249 159.818 60.6641 160.091C60.8033 160.361 60.9979 160.568 61.2479 160.713C61.4979 160.855 61.7905 160.926 62.1257 160.926C62.3501 160.926 62.5533 160.895 62.7351 160.832C62.9169 160.767 63.0746 160.672 63.2081 160.547C63.3416 160.422 63.4425 160.267 63.5107 160.082L64.951 160.244C64.8601 160.625 64.6868 160.957 64.4311 161.241C64.1783 161.523 63.8544 161.741 63.4595 161.898C63.0646 162.051 62.6129 162.128 62.1044 162.128ZM67.8626 153.273V162H66.32V153.273H67.8626ZM74.6222 157.185L73.2159 157.338C73.1761 157.196 73.1065 157.062 73.0071 156.938C72.9105 156.812 72.7798 156.712 72.6151 156.635C72.4503 156.558 72.2486 156.52 72.0099 156.52C71.6889 156.52 71.419 156.589 71.2003 156.729C70.9844 156.868 70.8778 157.048 70.8807 157.27C70.8778 157.46 70.9474 157.615 71.0895 157.734C71.2344 157.854 71.473 157.952 71.8054 158.028L72.9219 158.267C73.5412 158.401 74.0014 158.612 74.3026 158.902C74.6065 159.192 74.7599 159.571 74.7628 160.04C74.7599 160.452 74.6392 160.815 74.4006 161.131C74.1648 161.443 73.8366 161.687 73.4162 161.864C72.9957 162.04 72.5128 162.128 71.9673 162.128C71.1662 162.128 70.5213 161.96 70.0327 161.625C69.544 161.287 69.2528 160.817 69.1591 160.214L70.6634 160.07C70.7315 160.365 70.8764 160.588 71.098 160.739C71.3196 160.889 71.608 160.964 71.9631 160.964C72.3295 160.964 72.6236 160.889 72.8452 160.739C73.0696 160.588 73.1818 160.402 73.1818 160.18C73.1818 159.993 73.1094 159.838 72.9645 159.716C72.8224 159.594 72.6009 159.5 72.2997 159.435L71.1832 159.2C70.5554 159.07 70.0909 158.849 69.7898 158.54C69.4886 158.227 69.3395 157.832 69.3423 157.355C69.3395 156.952 69.4489 156.602 69.6705 156.307C69.8949 156.009 70.206 155.778 70.6037 155.616C71.0043 155.452 71.4659 155.369 71.9886 155.369C72.7557 155.369 73.3594 155.533 73.7997 155.859C74.2429 156.186 74.517 156.628 74.6222 157.185Z" fill="#112A5A"/>
</svg>
