<svg width="32" height="31" viewBox="0 0 32 31" fill="none" xmlns="http://www.w3.org/2000/svg">
<path d="M15.25 5.5C15.25 5.99246 15.347 6.48009 15.5355 6.93506C15.7239 7.39003 16.0001 7.80343 16.3483 8.15165C16.6966 8.49987 17.11 8.77609 17.5649 8.96455C18.0199 9.153 18.5075 9.25 19 9.25C19.4925 9.25 19.9801 9.153 20.4351 8.96455C20.89 8.77609 21.3034 8.49987 21.6517 8.15165C21.9999 7.80343 22.2761 7.39003 22.4645 6.93506C22.653 6.48009 22.75 5.99246 22.75 5.5C22.75 5.00754 22.653 4.51991 22.4645 4.06494C22.2761 3.60996 21.9999 3.19657 21.6516 2.84835C21.3034 2.50013 20.89 2.22391 20.4351 2.03545C19.9801 1.847 19.4925 1.75 19 1.75C18.5075 1.75 18.0199 1.847 17.5649 2.03545C17.11 2.22391 16.6966 2.50013 16.3483 2.84835C16.0001 3.19657 15.7239 3.60997 15.5355 4.06494C15.347 4.51991 15.25 5.00755 15.25 5.5L15.25 5.5Z" stroke="black" stroke-width="2"/>
<path d="M9.54733 15.3769C9.12085 15.6231 8.74704 15.9509 8.44725 16.3416C8.14746 16.7323 7.92756 17.1782 7.80011 17.6539C7.67265 18.1296 7.64013 18.6257 7.70441 19.1139C7.76869 19.6022 7.92851 20.073 8.17473 20.4995C8.42096 20.926 8.74878 21.2998 9.13947 21.5996C9.53017 21.8993 9.97608 22.1192 10.4518 22.2467C10.9274 22.3742 11.4236 22.4067 11.9118 22.3424C12.4 22.2781 12.8708 22.1183 13.2973 21.8721C13.7238 21.6258 14.0976 21.298 14.3974 20.9073C14.6972 20.5166 14.9171 20.0707 15.0445 19.595C15.172 19.1194 15.2045 18.6232 15.1402 18.135C15.076 17.6468 14.9162 17.176 14.6699 16.7495C14.4237 16.323 14.0959 15.9492 13.7052 15.6494C13.3145 15.3496 12.8686 15.1297 12.3929 15.0023C11.9172 14.8748 11.4211 14.8423 10.9329 14.9066C10.4446 14.9708 9.97381 15.1307 9.54733 15.3769L9.54733 15.3769Z" stroke="black" stroke-width="2"/>
<path d="M28.4527 15.3769C28.8792 15.6231 29.253 15.9509 29.5528 16.3416C29.8525 16.7323 30.0724 17.1782 30.1999 17.6539C30.3274 18.1296 30.3599 18.6257 30.2956 19.1139C30.2313 19.6022 30.0715 20.073 29.8253 20.4995C29.579 20.926 29.2512 21.2998 28.8605 21.5996C28.4698 21.8993 28.0239 22.1192 27.5482 22.2467C27.0726 22.3742 26.5764 22.4067 26.0882 22.3424C25.6 22.2781 25.1292 22.1183 24.7027 21.8721C24.2762 21.6258 23.9024 21.298 23.6026 20.9073C23.3028 20.5166 23.0829 20.0707 22.9555 19.595C22.828 19.1194 22.7955 18.6232 22.8598 18.135C22.924 17.6468 23.0839 17.176 23.3301 16.7495C23.5763 16.323 23.9041 15.9492 24.2948 15.6494C24.6855 15.3496 25.1314 15.1297 25.6071 15.0023C26.0828 14.8748 26.5789 14.8423 27.0672 14.9066C27.5554 14.9708 28.0262 15.1307 28.4527 15.3769L28.4527 15.3769Z" stroke="black" stroke-width="2"/>
<path fill-rule="evenodd" clip-rule="evenodd" d="M15.2905 6.05043C15.2635 5.86874 15.2499 5.68491 15.2499 5.50039C15.2499 5.00794 15.3469 4.5203 15.5354 4.06533C15.5778 3.96293 15.6246 3.86263 15.6758 3.76471C15.3767 3.85953 15.0813 3.96726 14.7905 4.08772C13.4559 4.64052 12.2433 5.45078 11.2218 6.47222C10.2004 7.49367 9.39012 8.7063 8.83732 10.0409C8.28452 11.3755 8 12.8059 8 14.2504C8 15.0471 8.08655 15.8395 8.25693 16.614C8.31618 16.5207 8.37962 16.43 8.4471 16.342C8.74689 15.9513 9.1207 15.6235 9.54718 15.3773C9.70697 15.285 9.87299 15.2049 10.0438 15.1374C10.0147 14.8431 10 14.5471 10 14.2504C10 13.0685 10.2328 11.8982 10.6851 10.8062C11.1374 9.71432 11.8003 8.72217 12.636 7.88644C13.4035 7.11893 14.303 6.49716 15.2905 6.05043ZM22.7094 6.05036C23.6969 6.49708 24.5964 7.11888 25.364 7.88643C26.1997 8.72216 26.8626 9.71431 27.3149 10.8062C27.7672 11.8982 28 13.0685 28 14.2504C28 14.5472 27.9853 14.8432 27.9562 15.1374C28.1269 15.2049 28.2929 15.285 28.4526 15.3773C28.8791 15.6235 29.2529 15.9513 29.5527 16.342C29.6203 16.43 29.6837 16.5208 29.743 16.6142C29.9134 15.8397 30 15.0472 30 14.2504C30 12.8059 29.7155 11.3755 29.1627 10.0409C28.6099 8.70629 27.7996 7.49366 26.7782 6.47222C25.7567 5.45077 24.5441 4.64052 23.2095 4.08772C22.9186 3.96722 22.6232 3.85948 22.324 3.76465C22.3752 3.86259 22.422 3.96291 22.4645 4.06533C22.6529 4.5203 22.7499 5.00794 22.7499 5.50039C22.7499 5.68488 22.7363 5.86869 22.7094 6.05036ZM26.4194 22.3715C26.3088 22.3669 26.1983 22.3573 26.0882 22.3428C25.5999 22.2785 25.1291 22.1187 24.7026 21.8725C24.543 21.7803 24.3908 21.6767 24.247 21.5626C23.6878 21.9639 23.083 22.3007 22.4442 22.5653C21.3522 23.0176 20.1819 23.2504 19 23.2504C17.8181 23.2504 16.6478 23.0176 15.5559 22.5653C14.9169 22.3007 14.3122 21.9639 13.7529 21.5626C13.6091 21.6767 13.4568 21.7803 13.2972 21.8725C12.8707 22.1187 12.3999 22.2785 11.9117 22.3428C11.8016 22.3573 11.6911 22.3668 11.5806 22.3715C12.523 23.2324 13.6089 23.9237 14.7905 24.4131C16.1251 24.9659 17.5555 25.2504 19 25.2504C20.4445 25.2504 21.8749 24.9659 23.2095 24.4131C24.3911 23.9237 25.477 23.2324 26.4194 22.3715Z" fill="black"/>
</svg>
