<svg width="15" height="15" viewBox="0 0 15 15" fill="none" xmlns="http://www.w3.org/2000/svg">
<path d="M0 2C0 0.89543 0.895431 0 2 0H13C14.1046 0 15 0.895431 15 2V13C15 14.1046 14.1046 15 13 15H2C0.89543 15 0 14.1046 0 13V2Z" fill="#0094FB"/>
<path d="M12.2824 12.7534C12.6279 12.6814 12.8337 12.3198 12.662 12.0115C12.2835 11.3317 11.6873 10.7343 10.9245 10.2791C9.94214 9.69279 8.73848 9.375 7.50023 9.375C6.26197 9.375 5.05832 9.69279 4.07595 10.2791C3.31317 10.7343 2.71691 11.3317 2.33842 12.0115C2.16673 12.3198 2.37251 12.6814 2.71802 12.7534V12.7534C5.87227 13.4107 9.12818 13.4107 12.2824 12.7534V12.7534Z" fill="white"/>
<circle cx="7.5" cy="5" r="3.125" fill="white"/>
</svg>
