<svg width="15" height="15" viewBox="0 0 15 15" fill="none" xmlns="http://www.w3.org/2000/svg">
<path d="M0 2C0 0.89543 0.895431 0 2 0H13C14.1046 0 15 0.895431 15 2V13C15 14.1046 14.1046 15 13 15H2C0.89543 15 0 14.1046 0 13V2Z" fill="#0094FB"/>
<path fill-rule="evenodd" clip-rule="evenodd" d="M2.06728 5.06825C1.875 5.57913 1.875 6.21942 1.875 7.5C1.875 8.78058 1.875 9.42087 2.06728 9.93175C2.3716 10.7403 3.0097 11.3784 3.81825 11.6827C4.32913 11.875 4.96942 11.875 6.25 11.875H8.75C10.0306 11.875 10.6709 11.875 11.1818 11.6827C11.9903 11.3784 12.6284 10.7403 12.9327 9.93175C13.125 9.42087 13.125 8.78058 13.125 7.5C13.125 6.21942 13.125 5.57913 12.9327 5.06825C12.6284 4.2597 11.9903 3.6216 11.1818 3.31728C10.6709 3.125 10.0306 3.125 8.75 3.125H6.25C4.96942 3.125 4.32913 3.125 3.81825 3.31728C3.0097 3.6216 2.3716 4.2597 2.06728 5.06825ZM4.02735 5.20897C3.79759 5.0558 3.48715 5.11788 3.33397 5.34765C3.1808 5.57741 3.24289 5.88785 3.47265 6.04102L6.66795 8.17122C7.1718 8.50712 7.8282 8.50712 8.33205 8.17122L11.5273 6.04102C11.7571 5.88785 11.8192 5.57741 11.666 5.34765C11.5128 5.11788 11.2024 5.0558 10.9727 5.20897L7.77735 7.33917C7.6094 7.45114 7.3906 7.45114 7.22265 7.33917L4.02735 5.20897Z" fill="white"/>
</svg>
