<svg width="15" height="15" viewBox="0 0 15 15" fill="none" xmlns="http://www.w3.org/2000/svg">
<path d="M0 2C0 0.89543 0.895431 0 2 0H13C14.1046 0 15 0.895431 15 2V13C15 14.1046 14.1046 15 13 15H2C0.89543 15 0 14.1046 0 13V2Z" fill="#0094FD"/>
<path d="M4.22228 3.4093L4.57895 3.05263C5.1603 2.47128 6.10286 2.47128 6.68421 3.05263L6.81925 3.18768C7.32602 3.69445 7.32602 4.51608 6.81925 5.02285C6.4243 5.41781 6.32638 6.02119 6.57618 6.52077L6.91238 7.19319C7.10591 7.58024 7.41976 7.89409 7.80681 8.08762L8.47923 8.42382C8.97881 8.67362 9.58219 8.5757 9.97715 8.18075C10.4839 7.67398 11.3056 7.67398 11.8123 8.18075L11.9474 8.31579C12.5287 8.89714 12.5287 9.8397 11.9474 10.4211L11.5907 10.7777C10.8894 11.4791 9.77904 11.558 8.98557 10.9629L6.38647 9.01353C6.23485 8.89983 6.10017 8.76514 5.98647 8.61353L4.03714 6.01443C3.44203 5.22096 3.52094 4.11064 4.22228 3.4093Z" fill="white"/>
</svg>
