<svg width="15" height="15" viewBox="0 0 15 15" fill="none" xmlns="http://www.w3.org/2000/svg">
<path d="M0 2C0 0.89543 0.895431 0 2 0H13C14.1046 0 15 0.895431 15 2V13C15 14.1046 14.1046 15 13 15H2C0.89543 15 0 14.1046 0 13V2Z" fill="#0094FD"/>
<path fill-rule="evenodd" clip-rule="evenodd" d="M7.8989 12.2977C8.97818 11.711 11.875 9.85828 11.875 6.875C11.875 4.45875 9.91625 2.5 7.5 2.5C5.08375 2.5 3.125 4.45875 3.125 6.875C3.125 9.85828 6.02182 11.711 7.1011 12.2977C7.35136 12.4338 7.64864 12.4338 7.8989 12.2977ZM7.5 8.75C8.53553 8.75 9.375 7.91053 9.375 6.875C9.375 5.83947 8.53553 5 7.5 5C6.46447 5 5.625 5.83947 5.625 6.875C5.625 7.91053 6.46447 8.75 7.5 8.75Z" fill="white"/>
</svg>
