<svg width="33" height="30" viewBox="0 0 33 30" fill="none" xmlns="http://www.w3.org/2000/svg">
<path d="M6.87009 10.0307L5.88931 9.8356L6.87009 10.0307ZM8.04154 7.44524L7.24819 6.83648L7.24819 6.83648L8.04154 7.44524ZM10.2357 5.64455L9.79341 4.74767V4.74767L10.2357 5.64455ZM15.7643 5.64455L16.2066 4.74767L16.2066 4.74767L15.7643 5.64455ZM17.9585 7.44524L18.7518 6.83648L18.7518 6.83648L17.9585 7.44524ZM19.1299 10.0307L20.1107 9.8356V9.8356L19.1299 10.0307ZM6.78122 10.626L7.77623 10.7259L6.78122 10.626ZM7.77301 19.6344L8.54602 20.2688L7.77301 19.6344ZM7.63439 19.773L7 19L7.63439 19.773ZM18.3656 19.773L17.7312 20.546L18.3656 19.773ZM18.227 19.6344L19 19L18.227 19.6344ZM19.2188 10.626L18.2238 10.7259L19.2188 10.626ZM19.875 12.25C21.739 12.25 23.25 13.761 23.25 15.625H25.25C25.25 12.6565 22.8435 10.25 19.875 10.25V12.25ZM23.25 15.625C23.25 17.489 21.739 19 19.875 19V21C22.8435 21 25.25 18.5935 25.25 15.625H23.25ZM19 18.125V14.8194H17V18.125H19ZM19 14.8194C19 13.7149 18.1046 12.8194 17 12.8194V14.8194H19ZM17 12.8194H9V14.8194H17V12.8194ZM9 12.8194C7.89543 12.8194 7 13.7149 7 14.8194H9V12.8194ZM7 14.8194V18.125H9V14.8194H7ZM6.125 19C4.26104 19 2.75 17.489 2.75 15.625H0.75C0.75 18.5935 3.15647 21 6.125 21V19ZM2.75 15.625C2.75 13.761 4.26104 12.25 6.125 12.25V10.25C3.15647 10.25 0.75 12.6565 0.75 15.625H2.75ZM5.88931 9.8356C5.84377 10.0645 5.80942 10.295 5.78622 10.5262L7.77623 10.7259C7.79303 10.5584 7.8179 10.3915 7.85088 10.2258L5.88931 9.8356ZM7.24819 6.83648C6.57121 7.71874 6.10626 8.7449 5.88931 9.8356L7.85088 10.2258C8.00798 9.43596 8.34467 8.69288 8.83489 8.054L7.24819 6.83648ZM9.79341 4.74767C8.79603 5.23952 7.92517 5.95422 7.24819 6.83648L8.83489 8.054C9.32512 7.41513 9.95575 6.89759 10.678 6.54142L9.79341 4.74767ZM13 4C11.8879 4 10.7908 4.25582 9.79341 4.74767L10.678 6.54142C11.4002 6.18525 12.1947 6 13 6V4ZM16.2066 4.74767C15.2092 4.25582 14.1121 4 13 4V6C13.8053 6 14.5998 6.18525 15.322 6.54142L16.2066 4.74767ZM18.7518 6.83648C18.0748 5.95422 17.204 5.23952 16.2066 4.74767L15.322 6.54142C16.0443 6.89759 16.6749 7.41513 17.1651 8.054L18.7518 6.83648ZM20.1107 9.8356C19.8937 8.7449 19.4288 7.71874 18.7518 6.83648L17.1651 8.054C17.6553 8.69288 17.992 9.43596 18.1491 10.2258L20.1107 9.8356ZM20.2138 10.5262C20.1906 10.295 20.1562 10.0645 20.1107 9.8356L18.1491 10.2258C18.1821 10.3915 18.207 10.5584 18.2238 10.7259L20.2138 10.5262ZM6.125 12.25C7.04477 12.25 7.69681 11.5174 7.77623 10.7259L5.78622 10.5262C5.7927 10.4616 5.82174 10.3991 5.87351 10.3489C5.92829 10.2958 6.01729 10.25 6.125 10.25V12.25ZM7 18.125C7 18.5604 6.99836 18.7991 6.97854 18.9668C6.96133 19.1124 6.94304 19.0694 7 19L8.54602 20.2688C8.82997 19.9228 8.92518 19.536 8.96471 19.2016C9.00164 18.8892 9 18.5114 9 18.125H7ZM6.125 21C6.51144 21 6.88919 21.0016 7.20156 20.9647C7.53601 20.9252 7.9228 20.83 8.26879 20.546L7 19C7.0694 18.943 7.11242 18.9613 6.96679 18.9785C6.79909 18.9984 6.56043 19 6.125 19V21ZM7 19L8.26879 20.546C8.37005 20.4629 8.46291 20.3701 8.54602 20.2688L7 19ZM19.875 19C19.4396 19 19.2009 18.9984 19.0332 18.9785C18.8876 18.9613 18.9306 18.943 19 19L17.7312 20.546C18.0772 20.83 18.464 20.9252 18.7984 20.9647C19.1108 21.0016 19.4886 21 19.875 21V19ZM17 18.125C17 18.5114 16.9984 18.8892 17.0353 19.2016C17.0748 19.536 17.17 19.9228 17.454 20.2688L19 19C19.057 19.0694 19.0387 19.1124 19.0215 18.9668C19.0016 18.7991 19 18.5604 19 18.125H17ZM19 19L17.454 20.2688C17.5371 20.3701 17.6299 20.4629 17.7312 20.546L19 19ZM19.875 10.25C19.9827 10.25 20.0717 10.2958 20.1265 10.3489C20.1783 10.3991 20.2073 10.4616 20.2138 10.5262L18.2238 10.7259C18.3032 11.5174 18.9552 12.25 19.875 12.25V10.25Z" fill="black"/>
<rect x="8" y="13.75" width="10" height="12.5" rx="2" stroke="black" stroke-width="2"/>
<path d="M12.375 20H13.625" stroke="black" stroke-width="2" stroke-linecap="round"/>
</svg>
