<svg width="140" height="165" viewBox="0 0 140 165" fill="none" xmlns="http://www.w3.org/2000/svg">
<path d="M45.6037 155.672C45.5639 155.3 45.3963 155.01 45.1009 154.803C44.8082 154.595 44.4276 154.491 43.9588 154.491C43.6293 154.491 43.3466 154.541 43.1108 154.641C42.875 154.74 42.6946 154.875 42.5696 155.045C42.4446 155.216 42.3807 155.411 42.3778 155.629C42.3778 155.811 42.419 155.969 42.5014 156.102C42.5866 156.236 42.7017 156.349 42.8466 156.443C42.9915 156.534 43.152 156.611 43.3281 156.673C43.5043 156.736 43.6818 156.788 43.8608 156.831L44.679 157.036C45.0085 157.112 45.3253 157.216 45.6293 157.347C45.9361 157.477 46.2102 157.642 46.4517 157.841C46.696 158.04 46.8892 158.28 47.0312 158.561C47.1733 158.842 47.2443 159.172 47.2443 159.55C47.2443 160.061 47.1136 160.511 46.8523 160.901C46.5909 161.287 46.2131 161.589 45.7188 161.808C45.2273 162.024 44.6321 162.132 43.9332 162.132C43.2543 162.132 42.6648 162.027 42.1648 161.817C41.6676 161.607 41.2784 161.3 40.9972 160.896C40.7188 160.493 40.5682 160.001 40.5455 159.422H42.1009C42.1236 159.726 42.2173 159.979 42.3821 160.18C42.5469 160.382 42.7614 160.533 43.0256 160.632C43.2926 160.732 43.5909 160.781 43.9205 160.781C44.2642 160.781 44.5653 160.73 44.8239 160.628C45.0852 160.523 45.2898 160.378 45.4375 160.193C45.5852 160.006 45.6605 159.787 45.6634 159.537C45.6605 159.31 45.5938 159.122 45.4631 158.974C45.3324 158.824 45.1491 158.699 44.9134 158.599C44.6804 158.497 44.4077 158.406 44.0952 158.327L43.1023 158.071C42.3835 157.886 41.8153 157.607 41.3977 157.232C40.983 156.854 40.7756 156.352 40.7756 155.727C40.7756 155.213 40.9148 154.763 41.1932 154.376C41.4744 153.99 41.8565 153.69 42.3395 153.477C42.8224 153.261 43.3693 153.153 43.9801 153.153C44.5994 153.153 45.142 153.261 45.608 153.477C46.0767 153.69 46.4446 153.987 46.7116 154.368C46.9787 154.746 47.1165 155.18 47.125 155.672H45.6037ZM52.7575 159.247V155.455H54.3001V162H52.8043V160.837H52.7362C52.5884 161.203 52.3455 161.503 52.0075 161.736C51.6722 161.969 51.2589 162.085 50.7674 162.085C50.3384 162.085 49.9592 161.99 49.6296 161.8C49.3029 161.607 49.0472 161.327 48.8626 160.96C48.6779 160.591 48.5856 160.145 48.5856 159.622V155.455H50.1282V159.384C50.1282 159.798 50.2418 160.128 50.4691 160.372C50.6964 160.616 50.9947 160.739 51.364 160.739C51.5913 160.739 51.8114 160.683 52.0245 160.572C52.2376 160.462 52.4123 160.297 52.5487 160.078C52.6879 159.857 52.7575 159.58 52.7575 159.247ZM55.8864 162V155.455H57.3608V156.567H57.4375C57.5739 156.192 57.7997 155.899 58.1151 155.689C58.4304 155.476 58.8068 155.369 59.2443 155.369C59.6875 155.369 60.0611 155.477 60.3651 155.693C60.6719 155.906 60.8878 156.197 61.0128 156.567H61.081C61.2259 156.203 61.4702 155.913 61.8139 155.697C62.1605 155.479 62.571 155.369 63.0455 155.369C63.6477 155.369 64.1392 155.56 64.5199 155.94C64.9006 156.321 65.0909 156.876 65.0909 157.607V162H63.544V157.845C63.544 157.439 63.4361 157.142 63.2202 156.955C63.0043 156.764 62.7401 156.669 62.4276 156.669C62.0554 156.669 61.7642 156.786 61.554 157.018C61.3466 157.249 61.2429 157.548 61.2429 157.918V162H59.7301V157.781C59.7301 157.443 59.6278 157.173 59.4233 156.972C59.2216 156.77 58.9574 156.669 58.6307 156.669C58.4091 156.669 58.2074 156.726 58.0256 156.839C57.8438 156.95 57.6989 157.108 57.5909 157.312C57.483 157.514 57.429 157.75 57.429 158.02V162H55.8864ZM77.4989 157.636C77.4989 158.577 77.3228 159.382 76.9705 160.053C76.6211 160.72 76.1438 161.232 75.5387 161.587C74.9364 161.942 74.2532 162.119 73.489 162.119C72.7248 162.119 72.0401 161.942 71.435 161.587C70.8327 161.229 70.3555 160.716 70.0032 160.048C69.6538 159.378 69.479 158.574 69.479 157.636C69.479 156.696 69.6538 155.892 70.0032 155.224C70.3555 154.554 70.8327 154.041 71.435 153.686C72.0401 153.331 72.7248 153.153 73.489 153.153C74.2532 153.153 74.9364 153.331 75.5387 153.686C76.1438 154.041 76.6211 154.554 76.9705 155.224C77.3228 155.892 77.4989 156.696 77.4989 157.636ZM75.9094 157.636C75.9094 156.974 75.8058 156.416 75.5984 155.962C75.3938 155.504 75.1097 155.159 74.7461 154.926C74.3825 154.69 73.9634 154.572 73.489 154.572C73.0146 154.572 72.5955 154.69 72.2319 154.926C71.8683 155.159 71.5827 155.504 71.3754 155.962C71.1708 156.416 71.0685 156.974 71.0685 157.636C71.0685 158.298 71.1708 158.858 71.3754 159.315C71.5827 159.77 71.8683 160.115 72.2319 160.351C72.5955 160.584 73.0146 160.7 73.489 160.7C73.9634 160.7 74.3825 160.584 74.7461 160.351C75.1097 160.115 75.3938 159.77 75.5984 159.315C75.8058 158.858 75.9094 158.298 75.9094 157.636ZM82.2408 155.455V156.648H78.3714V155.455H82.2408ZM79.3388 162V154.837C79.3388 154.396 79.4297 154.03 79.6115 153.737C79.7962 153.445 80.0433 153.226 80.353 153.081C80.6626 152.936 81.0064 152.864 81.3842 152.864C81.6513 152.864 81.8885 152.885 82.0959 152.928C82.3033 152.97 82.4567 153.009 82.5561 153.043L82.2493 154.236C82.1839 154.216 82.1016 154.196 82.0021 154.176C81.9027 154.153 81.7919 154.142 81.6697 154.142C81.3828 154.142 81.1797 154.212 81.0604 154.351C80.9439 154.487 80.8857 154.683 80.8857 154.939V162H79.3388ZM86.4936 162V153.273H89.7663C90.4368 153.273 90.9993 153.389 91.4538 153.622C91.9112 153.855 92.2564 154.182 92.4893 154.602C92.7251 155.02 92.843 155.507 92.843 156.064C92.843 156.624 92.7237 157.109 92.4851 157.521C92.2493 157.93 91.9013 158.247 91.4411 158.472C90.9808 158.693 90.4155 158.804 89.745 158.804H87.4141V157.491H89.532C89.924 157.491 90.245 157.437 90.495 157.33C90.745 157.219 90.9297 157.058 91.049 156.848C91.1712 156.635 91.2322 156.374 91.2322 156.064C91.2322 155.754 91.1712 155.49 91.049 155.271C90.9268 155.05 90.7408 154.882 90.4908 154.768C90.2408 154.652 89.9183 154.594 89.5234 154.594H88.0746V162H86.4936ZM91.0021 158.045L93.1626 162H91.3984L89.2763 158.045H91.0021ZM98.402 159.247V155.455H99.9446V162H98.4489V160.837H98.3807C98.233 161.203 97.9901 161.503 97.652 161.736C97.3168 161.969 96.9034 162.085 96.4119 162.085C95.983 162.085 95.6037 161.99 95.2741 161.8C94.9474 161.607 94.6918 161.327 94.5071 160.96C94.3224 160.591 94.2301 160.145 94.2301 159.622V155.455H95.7727V159.384C95.7727 159.798 95.8864 160.128 96.1136 160.372C96.3409 160.616 96.6392 160.739 97.0085 160.739C97.2358 160.739 97.456 160.683 97.669 160.572C97.8821 160.462 98.0568 160.297 98.1932 160.078C98.3324 159.857 98.402 159.58 98.402 159.247ZM103.074 153.273V162H101.531V153.273H103.074ZM107.558 162.128C106.901 162.128 106.335 161.991 105.857 161.719C105.383 161.443 105.018 161.054 104.762 160.551C104.506 160.045 104.379 159.45 104.379 158.766C104.379 158.092 104.506 157.501 104.762 156.993C105.021 156.482 105.381 156.084 105.844 155.8C106.308 155.513 106.852 155.369 107.477 155.369C107.88 155.369 108.261 155.435 108.619 155.565C108.979 155.693 109.298 155.892 109.573 156.162C109.852 156.432 110.07 156.776 110.229 157.193C110.388 157.608 110.468 158.102 110.468 158.676V159.149H105.103V158.109H108.989C108.987 157.814 108.923 157.551 108.798 157.321C108.673 157.088 108.498 156.905 108.273 156.771C108.052 156.638 107.793 156.571 107.498 156.571C107.183 156.571 106.906 156.648 106.667 156.801C106.428 156.952 106.242 157.151 106.109 157.398C105.978 157.642 105.911 157.911 105.908 158.203V159.111C105.908 159.491 105.978 159.818 106.117 160.091C106.256 160.361 106.451 160.568 106.701 160.713C106.951 160.855 107.244 160.926 107.579 160.926C107.803 160.926 108.006 160.895 108.188 160.832C108.37 160.767 108.528 160.672 108.661 160.547C108.795 160.422 108.896 160.267 108.964 160.082L110.404 160.244C110.313 160.625 110.14 160.957 109.884 161.241C109.631 161.523 109.308 161.741 108.913 161.898C108.518 162.051 108.066 162.128 107.558 162.128ZM116.946 157.185L115.54 157.338C115.5 157.196 115.431 157.062 115.331 156.938C115.235 156.812 115.104 156.712 114.939 156.635C114.775 156.558 114.573 156.52 114.334 156.52C114.013 156.52 113.743 156.589 113.525 156.729C113.309 156.868 113.202 157.048 113.205 157.27C113.202 157.46 113.272 157.615 113.414 157.734C113.559 157.854 113.797 157.952 114.13 158.028L115.246 158.267C115.865 158.401 116.326 158.612 116.627 158.902C116.931 159.192 117.084 159.571 117.087 160.04C117.084 160.452 116.963 160.815 116.725 161.131C116.489 161.443 116.161 161.687 115.74 161.864C115.32 162.04 114.837 162.128 114.292 162.128C113.49 162.128 112.846 161.96 112.357 161.625C111.868 161.287 111.577 160.817 111.483 160.214L112.988 160.07C113.056 160.365 113.201 160.588 113.422 160.739C113.644 160.889 113.932 160.964 114.287 160.964C114.654 160.964 114.948 160.889 115.169 160.739C115.394 160.588 115.506 160.402 115.506 160.18C115.506 159.993 115.434 159.838 115.289 159.716C115.147 159.594 114.925 159.5 114.624 159.435L113.507 159.2C112.88 159.07 112.415 158.849 112.114 158.54C111.813 158.227 111.664 157.832 111.667 157.355C111.664 156.952 111.773 156.602 111.995 156.307C112.219 156.009 112.53 155.778 112.928 155.616C113.328 155.452 113.79 155.369 114.313 155.369C115.08 155.369 115.684 155.533 116.124 155.859C116.567 156.186 116.841 156.628 116.946 157.185Z" fill="#112A5A"/>
<line y1="135.5" x2="139.999" y2="135.5" stroke="#C4C4C4"/>
<rect y="108" width="14.9999" height="27" fill="#F5B31F"/>
<rect x="41.6667" y="51" width="14.9999" height="84" fill="#3699FF"/>
<rect x="83.3335" y="64" width="14.9999" height="71" fill="#69C536"/>
<rect x="125" width="14.9999" height="135" fill="#F64E60"/>
</svg>
