<svg width="140" height="165" viewBox="0 0 140 165" fill="none" xmlns="http://www.w3.org/2000/svg">
<path d="M29.6037 153.835C29.5639 153.463 29.3963 153.173 29.1009 152.966C28.8082 152.758 28.4276 152.655 27.9588 152.655C27.6293 152.655 27.3466 152.704 27.1108 152.804C26.875 152.903 26.6946 153.038 26.5696 153.209C26.4446 153.379 26.3807 153.574 26.3778 153.792C26.3778 153.974 26.419 154.132 26.5014 154.265C26.5866 154.399 26.7017 154.513 26.8466 154.606C26.9915 154.697 27.152 154.774 27.3281 154.836C27.5043 154.899 27.6818 154.951 27.8608 154.994L28.679 155.199C29.0085 155.275 29.3253 155.379 29.6293 155.51C29.9361 155.64 30.2102 155.805 30.4517 156.004C30.696 156.203 30.8892 156.443 31.0312 156.724C31.1733 157.005 31.2443 157.335 31.2443 157.713C31.2443 158.224 31.1136 158.674 30.8523 159.064C30.5909 159.45 30.2131 159.753 29.7188 159.971C29.2273 160.187 28.6321 160.295 27.9332 160.295C27.2543 160.295 26.6648 160.19 26.1648 159.98C25.6676 159.77 25.2784 159.463 24.9972 159.059C24.7188 158.656 24.5682 158.165 24.5455 157.585H26.1009C26.1236 157.889 26.2173 158.142 26.3821 158.343C26.5469 158.545 26.7614 158.696 27.0256 158.795C27.2926 158.895 27.5909 158.944 27.9205 158.944C28.2642 158.944 28.5653 158.893 28.8239 158.791C29.0852 158.686 29.2898 158.541 29.4375 158.356C29.5852 158.169 29.6605 157.95 29.6634 157.7C29.6605 157.473 29.5938 157.285 29.4631 157.138C29.3324 156.987 29.1491 156.862 28.9134 156.763C28.6804 156.66 28.4077 156.569 28.0952 156.49L27.1023 156.234C26.3835 156.049 25.8153 155.77 25.3977 155.395C24.983 155.017 24.7756 154.515 24.7756 153.89C24.7756 153.376 24.9148 152.926 25.1932 152.54C25.4744 152.153 25.8565 151.853 26.3395 151.64C26.8224 151.424 27.3693 151.316 27.9801 151.316C28.5994 151.316 29.142 151.424 29.608 151.64C30.0767 151.853 30.4446 152.15 30.7116 152.531C30.9787 152.909 31.1165 153.343 31.125 153.835H29.6037ZM36.7575 157.41V153.618H38.3001V160.163H36.8043V159H36.7362C36.5884 159.366 36.3455 159.666 36.0075 159.899C35.6722 160.132 35.2589 160.248 34.7674 160.248C34.3384 160.248 33.9592 160.153 33.6296 159.963C33.3029 159.77 33.0472 159.49 32.8626 159.123C32.6779 158.754 32.5856 158.308 32.5856 157.785V153.618H34.1282V157.547C34.1282 157.961 34.2418 158.291 34.4691 158.535C34.6964 158.78 34.9947 158.902 35.364 158.902C35.5913 158.902 35.8114 158.846 36.0245 158.736C36.2376 158.625 36.4123 158.46 36.5487 158.241C36.6879 158.02 36.7575 157.743 36.7575 157.41ZM39.8864 160.163V153.618H41.3608V154.73H41.4375C41.5739 154.355 41.7997 154.062 42.1151 153.852C42.4304 153.639 42.8068 153.532 43.2443 153.532C43.6875 153.532 44.0611 153.64 44.3651 153.856C44.6719 154.069 44.8878 154.361 45.0128 154.73H45.081C45.2259 154.366 45.4702 154.076 45.8139 153.861C46.1605 153.642 46.571 153.532 47.0455 153.532C47.6477 153.532 48.1392 153.723 48.5199 154.103C48.9006 154.484 49.0909 155.04 49.0909 155.77V160.163H47.544V156.008C47.544 155.602 47.4361 155.305 47.2202 155.118C47.0043 154.927 46.7401 154.832 46.4276 154.832C46.0554 154.832 45.7642 154.949 45.554 155.182C45.3466 155.412 45.2429 155.711 45.2429 156.081V160.163H43.7301V155.944C43.7301 155.606 43.6278 155.336 43.4233 155.135C43.2216 154.933 42.9574 154.832 42.6307 154.832C42.4091 154.832 42.2074 154.889 42.0256 155.003C41.8438 155.113 41.6989 155.271 41.5909 155.476C41.483 155.677 41.429 155.913 41.429 156.183V160.163H39.8864ZM61.4989 155.799C61.4989 156.74 61.3228 157.545 60.9705 158.216C60.6211 158.883 60.1438 159.395 59.5387 159.75C58.9364 160.105 58.2532 160.282 57.489 160.282C56.7248 160.282 56.0401 160.105 55.435 159.75C54.8327 159.392 54.3555 158.879 54.0032 158.211C53.6538 157.541 53.479 156.737 53.479 155.799C53.479 154.859 53.6538 154.055 54.0032 153.388C54.3555 152.717 54.8327 152.204 55.435 151.849C56.0401 151.494 56.7248 151.316 57.489 151.316C58.2532 151.316 58.9364 151.494 59.5387 151.849C60.1438 152.204 60.6211 152.717 60.9705 153.388C61.3228 154.055 61.4989 154.859 61.4989 155.799ZM59.9094 155.799C59.9094 155.138 59.8058 154.579 59.5984 154.125C59.3938 153.667 59.1097 153.322 58.7461 153.089C58.3825 152.853 57.9634 152.736 57.489 152.736C57.0146 152.736 56.5955 152.853 56.2319 153.089C55.8683 153.322 55.5827 153.667 55.3754 154.125C55.1708 154.579 55.0685 155.138 55.0685 155.799C55.0685 156.461 55.1708 157.021 55.3754 157.478C55.5827 157.933 55.8683 158.278 56.2319 158.514C56.5955 158.747 57.0146 158.863 57.489 158.863C57.9634 158.863 58.3825 158.747 58.7461 158.514C59.1097 158.278 59.3938 157.933 59.5984 157.478C59.8058 157.021 59.9094 156.461 59.9094 155.799ZM66.2408 153.618V154.811H62.3714V153.618H66.2408ZM63.3388 160.163V153C63.3388 152.559 63.4297 152.193 63.6115 151.9C63.7962 151.608 64.0433 151.389 64.353 151.244C64.6626 151.099 65.0064 151.027 65.3842 151.027C65.6513 151.027 65.8885 151.048 66.0959 151.091C66.3033 151.133 66.4567 151.172 66.5561 151.206L66.2493 152.399C66.1839 152.379 66.1016 152.359 66.0021 152.339C65.9027 152.316 65.7919 152.305 65.6697 152.305C65.3828 152.305 65.1797 152.375 65.0604 152.514C64.9439 152.65 64.8857 152.846 64.8857 153.102V160.163H63.3388ZM72.0746 151.436V160.163H70.4936V151.436H72.0746ZM76.1474 160.278C75.6332 160.278 75.1729 160.146 74.7667 159.882C74.3604 159.618 74.0394 159.234 73.8036 158.731C73.5678 158.228 73.4499 157.618 73.4499 156.899C73.4499 156.172 73.5692 155.558 73.8079 155.058C74.0494 154.555 74.3746 154.176 74.7837 153.92C75.1928 153.662 75.6488 153.532 76.1516 153.532C76.5352 153.532 76.8505 153.598 77.0977 153.728C77.3448 153.856 77.5408 154.011 77.6857 154.193C77.8306 154.372 77.9428 154.541 78.0224 154.7H78.0863V151.436H79.6332V160.163H78.1161V159.132H78.0224C77.9428 159.291 77.8278 159.46 77.6772 159.639C77.5266 159.815 77.3278 159.966 77.0806 160.091C76.8335 160.216 76.5224 160.278 76.1474 160.278ZM76.5778 159.013C76.9045 159.013 77.1829 158.924 77.413 158.748C77.6431 158.569 77.8178 158.321 77.9371 158.003C78.0565 157.684 78.1161 157.314 78.1161 156.89C78.1161 156.467 78.0565 156.099 77.9371 155.787C77.8207 155.474 77.6474 155.231 77.4173 155.058C77.19 154.885 76.9102 154.798 76.5778 154.798C76.234 154.798 75.9471 154.888 75.717 155.066C75.4869 155.245 75.3136 155.493 75.1971 155.808C75.0806 156.123 75.0224 156.484 75.0224 156.89C75.0224 157.299 75.0806 157.665 75.1971 157.986C75.3164 158.304 75.4911 158.555 75.7212 158.74C75.9542 158.922 76.2397 159.013 76.5778 159.013ZM84.1747 160.291C83.5185 160.291 82.9517 160.155 82.4744 159.882C82 159.606 81.6349 159.217 81.3793 158.714C81.1236 158.209 80.9957 157.613 80.9957 156.929C80.9957 156.255 81.1236 155.665 81.3793 155.156C81.6378 154.645 81.9986 154.247 82.4616 153.963C82.9247 153.676 83.4688 153.532 84.0938 153.532C84.4972 153.532 84.8778 153.598 85.2358 153.728C85.5966 153.856 85.9148 154.055 86.1903 154.325C86.4688 154.595 86.6875 154.939 86.8466 155.356C87.0057 155.771 87.0852 156.265 87.0852 156.839V157.312H81.7202V156.272H85.6065C85.6037 155.977 85.5398 155.714 85.4148 155.484C85.2898 155.251 85.1151 155.068 84.8906 154.934C84.669 154.801 84.4105 154.734 84.1151 154.734C83.7997 154.734 83.5227 154.811 83.2841 154.964C83.0455 155.115 82.8594 155.314 82.7259 155.561C82.5952 155.805 82.5284 156.074 82.5256 156.366V157.274C82.5256 157.655 82.5952 157.981 82.7344 158.254C82.8736 158.524 83.0682 158.731 83.3182 158.876C83.5682 159.018 83.8608 159.089 84.196 159.089C84.4205 159.089 84.6236 159.058 84.8054 158.995C84.9872 158.93 85.1449 158.835 85.2784 158.71C85.4119 158.585 85.5128 158.43 85.581 158.245L87.0213 158.407C86.9304 158.788 86.7571 159.12 86.5014 159.405C86.2486 159.686 85.9247 159.905 85.5298 160.061C85.1349 160.214 84.6832 160.291 84.1747 160.291ZM89.9329 156.328V160.163H88.3903V153.618H89.8647V154.73H89.9414C90.092 154.363 90.332 154.072 90.6616 153.856C90.994 153.64 91.4045 153.532 91.8931 153.532C92.3448 153.532 92.7383 153.629 93.0735 153.822C93.4116 154.015 93.6729 154.295 93.8576 154.662C94.0451 155.028 94.1374 155.473 94.1346 155.995V160.163H92.592V156.234C92.592 155.797 92.4783 155.454 92.2511 155.207C92.0266 154.96 91.7156 154.836 91.3178 154.836C91.0479 154.836 90.8079 154.896 90.5977 155.015C90.3903 155.132 90.2269 155.301 90.1076 155.522C89.9911 155.744 89.9329 156.013 89.9329 156.328ZM98.9712 153.618V154.811H95.2085V153.618H98.9712ZM96.1374 152.049H97.68V158.194C97.68 158.402 97.7113 158.561 97.7738 158.672C97.8391 158.78 97.9244 158.853 98.0295 158.893C98.1346 158.933 98.2511 158.953 98.3789 158.953C98.4755 158.953 98.5636 158.946 98.6431 158.932C98.7255 158.917 98.788 158.905 98.8306 158.893L99.0906 160.099C99.0082 160.128 98.8903 160.159 98.7369 160.193C98.5863 160.227 98.4016 160.247 98.1829 160.253C97.7965 160.264 97.4485 160.206 97.1388 160.078C96.8292 159.947 96.5835 159.745 96.4016 159.473C96.2227 159.2 96.1346 158.859 96.1374 158.45V152.049ZM100.261 160.163V153.618H101.804V160.163H100.261ZM101.037 152.689C100.793 152.689 100.582 152.608 100.406 152.446C100.23 152.281 100.142 152.084 100.142 151.853C100.142 151.62 100.23 151.423 100.406 151.261C100.582 151.096 100.793 151.014 101.037 151.014C101.284 151.014 101.494 151.096 101.668 151.261C101.844 151.423 101.932 151.62 101.932 151.853C101.932 152.084 101.844 152.281 101.668 152.446C101.494 152.608 101.284 152.689 101.037 152.689ZM106.659 153.618V154.811H102.896V153.618H106.659ZM103.825 152.049H105.368V158.194C105.368 158.402 105.399 158.561 105.461 158.672C105.527 158.78 105.612 158.853 105.717 158.893C105.822 158.933 105.939 158.953 106.066 158.953C106.163 158.953 106.251 158.946 106.331 158.932C106.413 158.917 106.475 158.905 106.518 158.893L106.778 160.099C106.696 160.128 106.578 160.159 106.424 160.193C106.274 160.227 106.089 160.247 105.87 160.253C105.484 160.264 105.136 160.206 104.826 160.078C104.517 159.947 104.271 159.745 104.089 159.473C103.91 159.2 103.822 158.859 103.825 158.45V152.049ZM107.949 160.163V153.618H109.491V160.163H107.949ZM108.724 152.689C108.48 152.689 108.27 152.608 108.094 152.446C107.918 152.281 107.83 152.084 107.83 151.853C107.83 151.62 107.918 151.423 108.094 151.261C108.27 151.096 108.48 151.014 108.724 151.014C108.972 151.014 109.182 151.096 109.355 151.261C109.531 151.423 109.619 151.62 109.619 151.853C109.619 152.084 109.531 152.281 109.355 152.446C109.182 152.608 108.972 152.689 108.724 152.689ZM113.975 160.291C113.319 160.291 112.752 160.155 112.275 159.882C111.801 159.606 111.436 159.217 111.18 158.714C110.924 158.209 110.797 157.613 110.797 156.929C110.797 156.255 110.924 155.665 111.18 155.156C111.439 154.645 111.799 154.247 112.262 153.963C112.725 153.676 113.27 153.532 113.895 153.532C114.298 153.532 114.679 153.598 115.037 153.728C115.397 153.856 115.716 154.055 115.991 154.325C116.27 154.595 116.488 154.939 116.647 155.356C116.806 155.771 116.886 156.265 116.886 156.839V157.312H111.521V156.272H115.407C115.404 155.977 115.341 155.714 115.216 155.484C115.091 155.251 114.916 155.068 114.691 154.934C114.47 154.801 114.211 154.734 113.916 154.734C113.6 154.734 113.324 154.811 113.085 154.964C112.846 155.115 112.66 155.314 112.527 155.561C112.396 155.805 112.329 156.074 112.326 156.366V157.274C112.326 157.655 112.396 157.981 112.535 158.254C112.674 158.524 112.869 158.731 113.119 158.876C113.369 159.018 113.662 159.089 113.997 159.089C114.221 159.089 114.424 159.058 114.606 158.995C114.788 158.93 114.946 158.835 115.079 158.71C115.213 158.585 115.314 158.43 115.382 158.245L116.822 158.407C116.731 158.788 116.558 159.12 116.302 159.405C116.049 159.686 115.725 159.905 115.331 160.061C114.936 160.214 114.484 160.291 113.975 160.291ZM123.364 155.348L121.958 155.501C121.918 155.359 121.849 155.226 121.749 155.101C121.653 154.976 121.522 154.875 121.357 154.798C121.192 154.721 120.991 154.683 120.752 154.683C120.431 154.683 120.161 154.753 119.942 154.892C119.727 155.031 119.62 155.211 119.623 155.433C119.62 155.623 119.69 155.778 119.832 155.897C119.977 156.017 120.215 156.115 120.548 156.191L121.664 156.43C122.283 156.564 122.744 156.775 123.045 157.065C123.349 157.355 123.502 157.734 123.505 158.203C123.502 158.615 123.381 158.978 123.143 159.294C122.907 159.606 122.579 159.851 122.158 160.027C121.738 160.203 121.255 160.291 120.71 160.291C119.908 160.291 119.263 160.123 118.775 159.788C118.286 159.45 117.995 158.98 117.901 158.378L119.406 158.233C119.474 158.528 119.619 158.751 119.84 158.902C120.062 159.052 120.35 159.128 120.705 159.128C121.072 159.128 121.366 159.052 121.587 158.902C121.812 158.751 121.924 158.565 121.924 158.343C121.924 158.156 121.852 158.001 121.707 157.879C121.565 157.757 121.343 157.663 121.042 157.598L119.925 157.363C119.298 157.233 118.833 157.013 118.532 156.703C118.231 156.39 118.082 155.995 118.085 155.518C118.082 155.115 118.191 154.765 118.413 154.47C118.637 154.172 118.948 153.941 119.346 153.78C119.746 153.615 120.208 153.532 120.731 153.532C121.498 153.532 122.102 153.696 122.542 154.022C122.985 154.349 123.259 154.791 123.364 155.348Z" fill="#112A5A"/>
<line y1="131.949" x2="139.999" y2="131.949" stroke="#C4C4C4"/>
<rect y="93.1631" width="15" height="38.1633" fill="#F5B31F"/>
<rect x="42" y="60.6123" width="15" height="70.7143" fill="#3699FF"/>
<rect x="83" y="38.1631" width="15" height="93.1633" fill="#69C536"/>
<rect x="125" width="15" height="131.327" fill="#F64E60"/>
</svg>
