<svg width="20" height="20" viewBox="0 0 20 20" fill="none" xmlns="http://www.w3.org/2000/svg">
<path d="M3.16666 6.66699L3.16666 13.3337L5.16666 13.3337L5.16666 6.66699L3.16666 6.66699Z" fill="#112A5A"/>
<path d="M4.37468 1.97901L6.67083 5.42323C7.02526 5.95488 6.64414 6.66699 6.00519 6.66699L2.32815 6.66699C1.68919 6.66699 1.30808 5.95488 1.66251 5.42323L3.95865 1.97901C4.05761 1.83058 4.27572 1.83058 4.37468 1.97901Z" fill="#112A5A"/>
<path d="M4.37468 18.021L6.67083 14.5768C7.02526 14.0451 6.64414 13.333 6.00519 13.333L2.32815 13.333C1.68919 13.333 1.30808 14.0451 1.66251 14.5768L3.95865 18.021C4.05761 18.1694 4.27572 18.1694 4.37468 18.021Z" fill="#112A5A"/>
<path d="M9.16666 5.83301H15.8333" stroke="#112A5A" stroke-width="2" stroke-linecap="round"/>
<path d="M9.16666 10H15.8333" stroke="#112A5A" stroke-width="2" stroke-linecap="round"/>
<path d="M9.16666 14.166H15.8333" stroke="#112A5A" stroke-width="2" stroke-linecap="round"/>
</svg>
